<svg width="27" height="27" viewBox="0 0 27 27" fill="none" xmlns="http://www.w3.org/2000/svg">
<g id="vuesax/bold/send">
<g id="send">
<path id="Vector" d="M19.8968 9.93894L10.4885 5.2348C4.16868 2.06939 1.57481 4.66327 4.74021 10.9831L5.69643 12.8955C5.9712 13.4561 5.9712 14.1045 5.69643 14.6651L4.74021 16.5665C1.57481 22.8863 4.15769 25.4802 10.4885 22.3148L19.8968 17.6107C24.1173 15.5004 24.1173 12.0492 19.8968 9.93894ZM16.3467 14.5991H10.4116C9.96093 14.5991 9.58724 14.2254 9.58724 13.7748C9.58724 13.3242 9.96093 12.9505 10.4116 12.9505H16.3467C16.7973 12.9505 17.171 13.3242 17.171 13.7748C17.171 14.2254 16.7973 14.5991 16.3467 14.5991Z" fill="#03953F"/>
</g>
</g>
</svg>
